<svg width="117" height="19" viewBox="0 0 117 19" fill="none" xmlns="http://www.w3.org/2000/svg">
<path d="M0.608 18V1.2H11.672V3.816H3.848V8.208H10.952V10.728H3.848V15.384H11.672V18H0.608ZM19.9539 18.288C18.8499 18.288 17.8499 18.016 16.9539 17.472C16.0739 16.928 15.3779 16.184 14.8659 15.24C14.3539 14.28 14.0979 13.208 14.0979 12.024C14.0979 10.824 14.3539 9.76 14.8659 8.832C15.3779 7.888 16.0739 7.152 16.9539 6.624C17.8499 6.08 18.8499 5.808 19.9539 5.808C20.8339 5.808 21.6019 5.976 22.2579 6.312C22.9299 6.632 23.4659 7.08 23.8659 7.656V0.719999H27.1059V18H24.2259L23.8659 16.344C23.6259 16.696 23.3219 17.024 22.9539 17.328C22.6019 17.616 22.1779 17.848 21.6819 18.024C21.1859 18.2 20.6099 18.288 19.9539 18.288ZM20.6739 15.456C21.3139 15.456 21.8819 15.312 22.3779 15.024C22.8739 14.72 23.2579 14.312 23.5299 13.8C23.8179 13.288 23.9619 12.704 23.9619 12.048C23.9619 11.376 23.8179 10.784 23.5299 10.272C23.2579 9.76 22.8739 9.36 22.3779 9.072C21.8819 8.784 21.3139 8.64 20.6739 8.64C20.0499 8.64 19.4819 8.784 18.9699 9.072C18.4739 9.36 18.0899 9.76 17.8179 10.272C17.5459 10.784 17.4099 11.368 17.4099 12.024C17.4099 12.696 17.5459 13.288 17.8179 13.8C18.0899 14.312 18.4739 14.72 18.9699 15.024C19.4819 15.312 20.0499 15.456 20.6739 15.456ZM34.6959 18.288C33.7039 18.288 32.8559 18.08 32.1519 17.664C31.4639 17.248 30.9359 16.632 30.5679 15.816C30.2159 14.984 30.0399 13.968 30.0399 12.768V6.096H33.2559V12.48C33.2559 13.472 33.4559 14.232 33.8559 14.76C34.2559 15.288 34.8879 15.552 35.7519 15.552C36.3119 15.552 36.8079 15.424 37.2399 15.168C37.6719 14.896 38.0079 14.52 38.2479 14.04C38.4879 13.544 38.6079 12.944 38.6079 12.24V6.096H41.8479V18H38.9919L38.7519 16.008C38.3679 16.696 37.8319 17.248 37.1439 17.664C36.4559 18.08 35.6399 18.288 34.6959 18.288ZM50.8541 18.288C49.6381 18.288 48.5581 18.024 47.6141 17.496C46.6701 16.952 45.9261 16.216 45.3821 15.288C44.8541 14.344 44.5901 13.264 44.5901 12.048C44.5901 10.832 44.8541 9.76 45.3821 8.832C45.9261 7.888 46.6701 7.152 47.6141 6.624C48.5581 6.08 49.6381 5.808 50.8541 5.808C52.3901 5.808 53.6861 6.208 54.7421 7.008C55.7981 7.808 56.4621 8.912 56.7341 10.32H53.3261C53.1821 9.776 52.8861 9.352 52.4381 9.048C51.9901 8.728 51.4541 8.568 50.8301 8.568C50.2861 8.568 49.7901 8.712 49.3421 9C48.8941 9.272 48.5421 9.672 48.2861 10.2C48.0301 10.712 47.9021 11.328 47.9021 12.048C47.9021 12.592 47.9741 13.08 48.1181 13.512C48.2781 13.928 48.4861 14.288 48.7421 14.592C49.0141 14.896 49.3261 15.128 49.6781 15.288C50.0301 15.448 50.4141 15.528 50.8301 15.528C51.2461 15.528 51.6221 15.464 51.9581 15.336C52.2941 15.192 52.5821 14.992 52.8221 14.736C53.0621 14.464 53.2301 14.144 53.3261 13.776H56.7341C56.4621 15.152 55.7981 16.248 54.7421 17.064C53.6861 17.88 52.3901 18.288 50.8541 18.288ZM63.6093 18.288C62.6013 18.288 61.7613 18.128 61.0893 17.808C60.4333 17.488 59.9453 17.056 59.6253 16.512C59.3053 15.968 59.1453 15.368 59.1453 14.712C59.1453 13.976 59.3293 13.336 59.6973 12.792C60.0813 12.232 60.6573 11.792 61.4253 11.472C62.1933 11.152 63.1613 10.992 64.3293 10.992H67.3293C67.3293 10.416 67.2413 9.944 67.0653 9.576C66.9053 9.192 66.6493 8.912 66.2973 8.736C65.9613 8.544 65.5293 8.448 65.0013 8.448C64.3773 8.448 63.8413 8.584 63.3933 8.856C62.9613 9.128 62.6893 9.544 62.5773 10.104H59.4333C59.5293 9.224 59.8253 8.464 60.3213 7.824C60.8173 7.184 61.4733 6.688 62.2893 6.336C63.1053 5.984 64.0093 5.808 65.0013 5.808C66.1373 5.808 67.1213 6 67.9533 6.384C68.7853 6.752 69.4253 7.304 69.8733 8.04C70.3373 8.76 70.5693 9.64 70.5693 10.68V18H67.8333L67.4733 16.152C67.3133 16.472 67.1053 16.76 66.8493 17.016C66.6093 17.272 66.3293 17.496 66.0093 17.688C65.6893 17.88 65.3293 18.024 64.9293 18.12C64.5293 18.232 64.0893 18.288 63.6093 18.288ZM64.3773 15.792C64.8093 15.792 65.1853 15.72 65.5053 15.576C65.8413 15.416 66.1213 15.208 66.3453 14.952C66.5853 14.696 66.7693 14.4 66.8973 14.064C67.0413 13.728 67.1373 13.368 67.1853 12.984H64.6893C64.1933 12.984 63.7853 13.048 63.4653 13.176C63.1613 13.288 62.9373 13.456 62.7933 13.68C62.6493 13.888 62.5773 14.136 62.5773 14.424C62.5773 14.712 62.6493 14.96 62.7933 15.168C62.9373 15.376 63.1453 15.536 63.4173 15.648C63.6893 15.744 64.0093 15.792 64.3773 15.792ZM78.7334 18C77.8854 18 77.1414 17.872 76.5014 17.616C75.8774 17.344 75.3894 16.904 75.0374 16.296C74.6854 15.672 74.5094 14.824 74.5094 13.752V8.808H72.4694V6.096H74.5094L74.8694 2.856H77.7494V6.096H80.9174V8.808H77.7494V13.8C77.7494 14.344 77.8694 14.72 78.1094 14.928C78.3494 15.136 78.7574 15.24 79.3334 15.24H80.8454V18H78.7334ZM83.6482 18V6.096H86.8882V18H83.6482ZM85.2562 4.368C84.6802 4.368 84.2002 4.2 83.8162 3.864C83.4482 3.512 83.2642 3.072 83.2642 2.544C83.2642 2.016 83.4482 1.584 83.8162 1.248C84.2002 0.895999 84.6802 0.719999 85.2562 0.719999C85.8482 0.719999 86.3282 0.895999 86.6962 1.248C87.0802 1.584 87.2722 2.016 87.2722 2.544C87.2722 3.072 87.0802 3.512 86.6962 3.864C86.3282 4.2 85.8482 4.368 85.2562 4.368ZM95.8033 18.288C94.6673 18.288 93.6353 18.024 92.7073 17.496C91.7953 16.968 91.0673 16.232 90.5233 15.288C89.9793 14.344 89.7073 13.264 89.7073 12.048C89.7073 10.816 89.9793 9.736 90.5233 8.808C91.0673 7.864 91.8033 7.128 92.7313 6.6C93.6593 6.072 94.6913 5.808 95.8273 5.808C96.9793 5.808 98.0193 6.072 98.9473 6.6C99.8753 7.128 100.603 7.864 101.131 8.808C101.675 9.736 101.947 10.816 101.947 12.048C101.947 13.28 101.675 14.368 101.131 15.312C100.587 16.24 99.8513 16.968 98.9233 17.496C98.0113 18.024 96.9713 18.288 95.8033 18.288ZM95.8273 15.48C96.3393 15.48 96.8033 15.352 97.2193 15.096C97.6513 14.84 97.9953 14.456 98.2513 13.944C98.5233 13.432 98.6593 12.8 98.6593 12.048C98.6593 11.28 98.5313 10.648 98.2753 10.152C98.0193 9.64 97.6753 9.256 97.2433 9C96.8273 8.744 96.3633 8.616 95.8513 8.616C95.3393 8.616 94.8673 8.744 94.4353 9C94.0033 9.256 93.6593 9.64 93.4033 10.152C93.1473 10.648 93.0193 11.28 93.0193 12.048C93.0193 12.8 93.1473 13.432 93.4033 13.944C93.6593 14.456 93.9953 14.84 94.4113 15.096C94.8433 15.352 95.3153 15.48 95.8273 15.48ZM104.693 18V6.096H107.549L107.789 8.088C108.157 7.4 108.685 6.848 109.373 6.432C110.061 6.016 110.885 5.808 111.845 5.808C112.837 5.808 113.677 6.024 114.365 6.456C115.053 6.872 115.581 7.488 115.949 8.304C116.317 9.12 116.501 10.128 116.501 11.328V18H113.261V11.616C113.261 10.624 113.061 9.864 112.661 9.336C112.261 8.808 111.629 8.544 110.765 8.544C110.221 8.544 109.733 8.68 109.301 8.952C108.869 9.208 108.533 9.584 108.293 10.08C108.053 10.56 107.933 11.152 107.933 11.856V18H104.693Z" fill="#222222"/>
</svg>
